PathFileType	4	(X/Y/Z)	Patient4_TMGait_0pt4_01_right_04.trc.trc
DataRate	CameraRate	NumFrames	NumMarkers	Units	OrigDataRate	OrigDataStartFrame	OrigNumFrames
77.348066298343	77.348066298343	6	33	mm	77.348066298343	18	       141
Frame#	Time	Sacral			L.Shoulder			Chest			R.Shoulder			Neck			R.ASIS			L.ASIS			R.Thigh.Superior			R.Thigh.Lateral			R.Thigh.Inferior			R.Patella			L.Thigh.Superior			L.Thigh.Lateral			L.Thigh.Inferior			L.Patella			L.Shank.Superior			L.Shank.Lateral			L.Shank.Inferior			R.Shank.Superior			R.Shank.Lateral			R.Shank.Inferior			R.Heel			R.Midfoot.Superior			R.Midfoot.Lateral			R.Toe			L.Heel			L.Midfoot.Lateral			L.Midfoot.Superior			L.Toe			L.Elbow			L.Wrist			R.Elbow			R.Wrist			
		X1	Y1	Z1	X2	Y2	Z2	X3	Y3	Z3	X4	Y4	Z4	X5	Y5	Z5	X6	Y6	Z6	X7	Y7	Z7	X8	Y8	Z8	X9	Y9	Z9	X10	Y10	Z10	X11	Y11	Z11	X12	Y12	Z12	X13	Y13	Z13	X14	Y14	Z14	X15	Y15	Z15	X16	Y16	Z16	X17	Y17	Z17	X18	Y18	Z18	X19	Y19	Z19	X20	Y20	Z20	X21	Y21	Z21	X22	Y22	Z22	X23	Y23	Z23	X24	Y24	Z24	X25	Y25	Z25	X26	Y26	Z26	X27	Y27	Z27	X28	Y28	Z28	X29	Y29	Z29	X30	Y30	Z30	X31	Y31	Z31	X32	Y32	Z32	X33	Y33	Z33	

18	4.959785714286	801.482654821408	1014.700992875380	433.449383663263	1027.224026660691	1421.216373628266	247.323241471961	1099.476574059628	1363.051673563095	427.390844312886	996.000283801836	1454.159509756771	581.364681474168	994.484621063265	1499.530163092104	400.649704641921	1016.530319246836	955.209959292176	577.251520836748	1030.813285876572	962.057050553989	301.351063390067	1083.485723673936	768.829927451448	555.618809342308	1029.076887365652	652.951119601641	626.611743338000	1114.828363076542	608.144443926992	548.095291015149	1142.325775966011	525.690751076243	566.496534792571	1051.489965812446	742.671419415357	335.822049551531	952.743064848167	637.539016408770	267.063502057210	1021.082354863571	551.803787025878	335.755975829067	1011.473975694327	486.078803423874	344.893723745073	985.386310542403	416.577517475163	335.724236402450	893.812367309216	303.886818365608	283.220017244354	940.741773873010	192.564014270313	357.788687036502	1122.005314575607	437.658627340867	576.728932690775	1062.111869757329	328.303974548678	642.283747144322	1124.934503083810	237.369116429796	590.638370009422	1020.530035108649	53.799508527584	566.991243160356	1187.110494935290	123.824250495254	603.391506903879	1107.019917306041	49.462222352922	638.490540782074	1310.382484485973	81.950301277539	624.134752402974	809.952635719795	38.256894908246	402.365518008916	883.609645165286	35.160672623504	321.210902030594	967.146922720362	95.940927200368	347.924905754619	1095.924650163966	43.042898640664	320.049353797092	1091.780395192890	1085.299587975775	121.853165926615	1212.045645985952	852.774589447678	126.405271591589	864.118584077609	1138.376117820885	705.239864302641	876.931990493596	882.877063892942	760.317571275263	
19	4.972714285714	801.715512368405	1014.177230415726	433.848401725743	1027.098538507715	1420.881229224371	248.746294114929	1099.091907385977	1362.713921001968	428.910515995257	995.245338778800	1453.691130261649	582.721356579338	993.954564684504	1499.085448860827	402.001776607675	1016.215451255402	954.063261582693	578.315387458043	1031.318775158305	961.812060419653	302.352064691823	1082.065871717678	766.701443797292	557.219590412313	1025.447426597594	650.594943806943	626.330145086166	1111.971612280804	605.922026456543	548.719994549418	1137.915074811079	523.556918695793	565.957669177240	1050.689112275880	741.909254009695	336.256298827817	951.205454057622	637.317458711920	267.384479860035	1018.992663378619	551.073526197684	335.909550990906	1008.961333146076	485.345413435691	344.963634352442	982.364908062219	416.089021653902	335.757489848956	889.878822598904	304.050218794905	283.132930092617	936.212714936816	192.342241473806	357.635747022762	1117.771232057474	435.265192774915	575.835544145899	1057.417139341026	325.713908284187	640.372559989473	1120.510168343398	235.034806724419	588.724517156407	1016.024303130439	52.255931011324	563.615563425361	1182.696752181639	121.087062279733	601.130339042379	1101.856460889546	47.437584387599	635.658385593386	1305.476888982512	78.362257986585	622.717715818121	804.755351877668	38.340592055659	402.311783614094	878.411945626239	35.146233344830	321.172705938029	962.007126368852	95.876489270273	347.881289085465	1090.754548175984	42.850717413582	320.061803224502	1091.847648883386	1085.251013577142	122.531575926076	1213.929471446110	853.623988357963	129.827321927796	864.553050586192	1137.440720580961	706.749809574338	880.705846935268	882.044833801018	761.558416723620	
20	4.985642857143	802.141952893310	1013.462104031351	434.491560011921	1026.692264957309	1420.537271186593	250.335741332555	1098.613979628436	1362.426659358052	430.543279679836	994.420658656291	1453.152723352931	584.277803941997	993.218551608960	1498.581476494484	403.544365280644	1016.250543613008	952.811957407054	579.397843733888	1031.969269399395	961.579681764764	303.401417775774	1081.259020549696	764.542802880065	558.738377730494	1022.235599536472	648.105990869647	625.798453839973	1109.621865874296	603.637264401297	549.190687623401	1133.739138330327	521.083055005920	565.110608599395	1050.128564456920	741.143723924043	336.735177790284	949.875884836245	637.068490497998	267.777285920535	1017.102803583947	550.328528655919	336.102689694238	1006.639692281259	484.558868611714	345.079773660078	979.506467983268	415.551832333601	335.837937448398	886.059999216535	304.220463744901	283.131013559371	931.699609029758	192.087424279154	357.554173746007	1113.390671112523	432.471302165632	574.641149540550	1052.110679164762	323.075045403041	638.310056070625	1114.801769954109	232.311294523589	586.548449191741	1009.178026433059	50.915490041134	560.386037850634	1176.304042879077	117.912820192964	598.530926713216	1094.456600173156	45.483142356428	632.855441210175	1298.474882825631	73.870788267298	620.908236399477	799.564598763475	38.420884071609	402.257356389846	873.217877097607	35.136069821115	321.138363344647	956.857900932694	95.809201000548	347.845950574081	1085.578296986122	42.673332693363	320.066766913224	1091.819495032450	1085.256164040652	123.300498000367	1215.847875076496	854.622275640180	133.446612956204	865.328880283162	1136.340833553822	708.658493579463	885.619300208040	881.151083146408	763.233704135403	
21	4.998571428571	802.746521547885	1012.568758115022	435.376832537846	1026.021978303244	1420.192113730079	252.096954245407	1098.060264065609	1362.190037850049	432.293692126856	993.548519706596	1452.543907730158	586.042646161547	992.301155999790	1498.026114643411	405.287659818661	1016.635106925490	951.480191295210	580.489560964496	1032.754699266013	961.360381637989	304.492439763519	1080.977240435863	762.306499898476	560.104461802684	1019.427243233521	645.538822734650	625.072067687061	1107.649496924569	601.274493551476	549.447595564428	1129.738281811156	518.326370179103	563.942219799329	1049.810253077498	740.375851126588	337.251601442307	948.745269610828	636.796026912245	268.253422460615	1015.402233549992	549.573205895265	336.347155192351	1004.504191319066	483.720991252334	345.258309120097	976.803557788148	414.967078592081	335.982249017962	882.353004954858	304.400758559636	283.223661923258	927.194018709608	191.799095670993	357.554888883859	1108.928687677382	429.374407970694	573.197415804773	1046.458895527169	320.396467155268	636.221862356076	1108.191210183959	229.278462983806	584.210958047051	1000.645655916924	49.651146814078	557.497895468667	1168.483520632299	114.481560634701	595.712216561932	1085.527997296268	43.632750324870	630.249096604418	1290.031750119966	68.895098499721	618.765205059262	794.380048227548	38.496878505713	402.202053059560	868.028273450185	35.131399046090	321.110940930253	951.697700075254	95.741259370996	347.822689044776	1080.395677594808	42.506993193747	320.064609987521	1091.720016810696	1085.321681181053	124.175427251693	1217.746790149130	855.731677125983	137.152325923415	866.438510870909	1135.086419862106	710.943081742548	891.575858981434	880.233397088418	765.304823895099	
22	5.011500000000	803.504465757023	1011.528470236471	436.493267617281	1025.115796452661	1419.863285919905	254.031881520068	1097.451662628455	1362.010127517330	434.163999133971	992.653948863590	1451.874920586451	588.018779228935	991.235733334089	1497.438332101977	407.238090840399	1017.349097772867	950.106825315651	581.586159675333	1033.656992725519	961.157207511637	305.623059439472	1081.097481244155	759.974624729302	561.251523020960	1017.013583554930	642.976793686161	624.230471255955	1105.920280061224	598.852948956866	549.443459689803	1125.874112202705	515.385719653350	562.482491873465	1049.727440575209	739.610171998336	337.795759353097	947.796075807328	636.508334773234	268.825063686214	1013.879710815194	548.815545147107	336.654572812835	1002.554653276221	482.836251245722	345.513793802088	974.248693816532	414.340170631268	336.206078930389	878.751264721760	304.599652517265	283.418144861431	922.694258469371	191.483534810532	357.639524455695	1104.474105416403	426.111451393725	571.587693518404	1040.748825448339	317.722472454430	634.238455750904	1101.101148846239	226.066995256118	581.831546405631	991.146254996148	48.393844320905	555.094968615493	1159.831989136120	111.015307200187	592.833694683401	1075.809610917800	41.942983977187	627.980357478690	1280.830947559255	63.884131907546	616.415292750564	789.199756657808	38.572375923470	402.144629317604	862.843850852767	35.134361682260	321.093304921762	946.527367220537	95.677173659678	347.813068324376	1075.206961582451	42.346539053972	320.055591427155	1091.572488646595	1085.457105802296	125.174732506435	1219.567623812458	856.910712675874	140.825136871038	867.883398767117	1133.695421849101	713.574607425430	898.481433711906	879.338002172906	767.729909155617	
23	5.024428571429	804.382128000691	1010.391010106865	437.822088436712	1024.013681634108	1419.578712114040	256.137491885906	1096.811193066781	1361.899188029239	436.153226840273	991.762621140517	1451.167912301195	590.201165338627	990.062488609797	1496.848449994182	409.396020207841	1018.351895318555	948.745792043655	582.689981509886	1034.648417417712	960.976681179311	306.796816929312	1081.480977786024	757.572280637902	562.125684018185	1014.995444277569	640.526243373306	623.369475966538	1104.319145442610	596.432306688153	549.155856050065	1122.143788786189	512.396116091627	560.807110488422	1049.863837657767	738.857211792109	338.360439740196	947.006809065007	636.217377576219	269.504953441312	1012.529429847504	548.067887298679	337.036691175536	1000.801857302039	481.911482709995	345.857237683985	971.839641389134	413.680638171585	336.522285505251	875.249046462859	304.831788132487	283.719910142188	918.208886326503	191.154165679729	357.798977170268	1100.137069642995	422.845251012799	569.919353374395	1035.261715759584	315.128315709088	632.484739899983	1093.949736076459	222.839990593928	579.537722644598	981.375153060209	47.135011188233	553.256092883581	1150.924735539933	107.739437091288	590.075348979740	1065.984434841357	40.473529899333	626.148211952277	1271.506702110442	59.241397297982	614.034406000199	784.020707150252	38.658371084027	402.082352681273	857.665672093167	35.148680774191	321.087603936227	941.351237313687	95.623431494717	347.815580899640	1070.013841430089	42.185334011041	320.039553299740	1091.397241966351	1085.676208184123	126.316219733393	1221.250317075223	858.119186919691	144.347187872561	869.671695270352	1132.195473387738	716.517886456396	906.247154504495	878.520537230449	770.465663183253	
